<?xml version="1.0" encoding="UTF-8"?>
<svg xmlns="http://www.w3.org/2000/svg" version="1.1" xmlns:xlink="http://www.w3.org/1999/xlink" viewBox="0 0 1920 1080">
  <!-- Generator: Adobe Illustrator 29.1.0, SVG Export Plug-In . SVG Version: 2.1.0 Build 142)  -->
  <defs>
    <style>
      .st0 {
        fill: none;
      }

      .st1 {
        mix-blend-mode: color-burn;
      }

      .st2 {
        fill: url(#radial-gradient);
      }

      .st3 {
        isolation: isolate;
      }

      .st4 {
        fill: #666;
      }

      .st5 {
        mix-blend-mode: multiply;
      }
    </style>
    <radialGradient id="radial-gradient" cx="928.09" cy="404.83" fx="928.09" fy="404.83" r="1077.08" gradientUnits="userSpaceOnUse">
      <stop offset=".17" stop-color="#22bfff"/>
      <stop offset="1" stop-color="#0064b6"/>
    </radialGradient>
  </defs>
  <g class="st3">
    <g id="Layer_1">
      <g class="st1">
        <path class="st4" d="M.57,676.89c10.91,19.24,23.46,37.23,37.47,53.89,13.81,16.78,28.78,32.4,44.65,46.77,15.96,14.29,32.73,27.43,50.39,39.02,8.76,5.89,17.88,11.17,26.91,16.47,9.33,4.85,18.48,9.87,28.09,14,9.37,4.55,19.2,8.13,28.78,12.05,9.91,3.23,19.54,6.98,29.63,9.49,19.82,5.95,40.23,9.71,60.58,12.95,10.33,1,20.51,2.49,30.84,3.13,10.35.5,20.58,1.6,30.99,1.37l15.52.1c5.16.12,10.37-.41,15.55-.57l15.53-.72c5.17-.28,10.37-.92,15.54-1.35l15.52-1.43c5.17-.55,10.33-1.45,15.49-2.15,10.33-1.47,20.67-2.87,30.72-4.92,20.26-3.9,40.61-8.68,60.91-14.31,20.32-5.53,40.56-12.14,60.88-18.74,20.3-6.67,40.56-13.88,60.8-21.42,40.47-15.04,81.08-30.79,121.66-47.18l122.65-48.7c41.21-15.93,82.75-31.6,124.71-46.55,42.08-14.61,84.57-28.69,127.7-41.12,43.22-12.19,86.88-23.54,131.36-32.05,22.22-4.3,44.56-8.21,67.07-11.34,22.54-2.97,45.15-5.52,67.92-7.09,45.46-3.39,91.43-3.13,137.05,1.1,45.6,4.55,90.92,13.11,134.45,27.2,43.58,13.81,85.18,33.11,123.58,56.77,38.36,23.76,73.17,52.36,104,84.09-18.8-11.77-37.23-23.69-56.75-33.66-19.11-10.57-38.97-19.52-58.79-28.02-40.03-16.26-81.09-28.7-122.96-36.1-10.4-2.08-20.94-3.48-31.4-5.07-5.24-.73-10.54-1.2-15.79-1.82-5.25-.61-10.51-1.18-15.8-1.49-21.06-1.94-42.25-2.45-63.36-2.53-21.16.36-42.28,1.03-63.39,2.83-21.11,1.8-42.15,4.27-63.16,7.39-21.01,2.98-41.94,6.91-62.8,11.21-20.87,4.3-41.69,9.04-62.41,14.32-41.42,10.71-82.67,22.75-123.62,36.24-40.95,13.54-81.84,27.73-122.5,43.12-40.79,15.02-81.49,30.73-122.27,46.8l-123.2,47.59c-20.73,7.74-41.51,15.47-62.46,22.99-20.93,7.55-41.97,15.01-63.33,21.87-42.61,13.89-85.98,26.9-130.85,36.55-22.44,4.81-45.2,9.06-68.43,11.86-11.67,1.5-23.24,2.24-34.8,3.04-5.79.36-11.54.91-17.34,1.12l-17.44.36c-5.81.07-11.6.33-17.42.23l-17.48-.67c-5.82-.32-11.62-.28-17.45-.91l-17.44-1.64c-11.61-.82-23.18-3.01-34.72-4.64-5.78-.72-11.5-2.1-17.23-3.31l-17.13-3.71c-22.62-6.09-45.15-12.49-66.63-21.85-10.9-4.18-21.29-9.64-31.81-14.57l-15.34-8.37c-5.15-2.69-10.08-5.79-14.98-8.92-9.95-5.99-19.32-12.87-28.74-19.54-9.11-7.15-18.27-14.13-26.73-21.96-17.12-15.37-33-31.91-47.13-49.74-28.21-35.54-50.87-75.32-63.81-117.79Z"/>
      </g>
      <g class="st5">
        <path class="st2" d="M-1.25,680.7c11.17,19.09,23.97,36.9,38.21,53.37,14.04,16.59,29.23,31.99,45.29,46.15,16.15,14.07,33.11,26.97,50.92,38.31,8.84,5.77,18.03,10.92,27.13,16.1,9.39,4.72,18.61,9.62,28.28,13.61,9.44,4.42,19.31,7.87,28.94,11.65,9.95,3.09,19.63,6.71,29.76,9.08,19.9,5.68,40.37,9.15,60.76,12.11,10.34.86,20.54,2.21,30.88,2.7,10.36.36,20.6,1.31,31,.95l15.52-.12c5.16.05,10.37-.55,15.54-.79l15.52-.93c5.17-.35,10.35-1.06,15.52-1.56l15.49-1.64c5.16-.62,10.31-1.59,15.46-2.36,10.31-1.62,20.62-3.15,30.65-5.34,20.2-4.18,40.49-9.24,60.71-15.15,20.24-5.81,40.39-12.7,60.62-19.58,20.2-6.95,40.37-14.44,60.5-22.26,40.26-15.6,80.64-31.91,120.99-48.86l121.97-50.39c40.98-16.5,82.3-32.74,124.05-48.27,41.88-15.19,84.16-29.85,127.12-42.88,43.05-12.79,86.55-24.74,130.9-33.86,22.16-4.61,44.45-8.82,66.91-12.26,22.49-3.28,45.07-6.14,67.81-8.02,45.41-4.02,91.37-4.39,137.05-.8,45.66,3.92,91.09,11.85,134.81,25.34,43.76,13.21,85.63,31.93,124.35,55.05,38.69,23.23,73.89,51.34,105.15,82.64-18.97-11.51-37.55-23.18-57.21-32.87-19.25-10.3-39.23-18.98-59.17-27.2-40.25-15.7-81.48-27.58-123.44-34.39-10.43-1.93-20.99-3.2-31.47-4.64-5.25-.66-10.55-1.06-15.81-1.6-5.26-.54-10.52-1.04-15.82-1.27-21.08-1.64-42.28-1.86-63.39-1.65-21.15.66-42.27,1.61-63.35,3.71-21.08,2.09-42.09,4.85-63.05,8.27-20.96,3.27-41.84,7.49-62.64,12.08-20.81,4.58-41.56,9.61-62.21,15.18-41.26,11.28-82.35,23.89-123.11,37.94-40.76,14.1-81.45,28.86-121.89,44.81-40.58,15.59-81.05,31.86-121.61,48.48l-122.53,49.28c-20.62,8.03-41.29,16.04-62.14,23.86-20.83,7.83-41.76,15.59-63.02,22.74-42.42,14.48-85.6,28.09-130.34,38.36-22.37,5.12-45.07,9.68-68.26,12.81-11.65,1.66-23.21,2.56-34.75,3.52-5.78.44-11.52,1.07-17.33,1.35l-17.43.6c-5.81.15-11.6.49-17.42.47l-17.48-.43c-5.83-.24-11.62-.12-17.46-.67l-17.46-1.4c-11.62-.66-23.22-2.69-34.79-4.16-5.79-.64-11.53-1.94-17.27-3.08l-17.18-3.47c-22.7-5.78-45.32-11.87-66.93-20.93-10.95-4.03-21.42-9.35-32.01-14.13l-15.45-8.16c-5.19-2.61-10.16-5.65-15.1-8.72-10.03-5.85-19.5-12.6-29.01-19.14-9.21-7.02-18.46-13.88-27.03-21.59-17.33-15.13-33.44-31.45-47.81-49.08-28.69-35.15-51.9-74.61-65.43-116.9Z"/>
      </g>
      <rect class="st0" x="36.01" y="-111.21" width="1790.84" height="1302.43"/>
    </g>
  </g>
</svg>