<?xml version="1.0" encoding="UTF-8"?>
<svg xmlns="http://www.w3.org/2000/svg" version="1.1" xmlns:xlink="http://www.w3.org/1999/xlink" viewBox="0 0 396 288">
  <!-- Generator: Adobe Illustrator 29.1.0, SVG Export Plug-In . SVG Version: 2.1.0 Build 142)  -->
  <defs>
    <style>
      .st0 {
        fill: none;
      }

      .st1 {
        mix-blend-mode: color-burn;
      }

      .st2 {
        fill: url(#radial-gradient);
      }

      .st3 {
        isolation: isolate;
      }

      .st4 {
        fill: #666;
      }

      .st5 {
        mix-blend-mode: multiply;
      }
    </style>
    <radialGradient id="radial-gradient" cx="197.26" cy="114.11" fx="197.26" fy="114.11" r="238.17" gradientUnits="userSpaceOnUse">
      <stop offset=".17" stop-color="#22bfff"/>
      <stop offset="1" stop-color="#0064b6"/>
    </radialGradient>
  </defs>
  <g class="st3">
    <g id="Layer_1">
      <g class="st1">
        <path class="st4" d="M-7.84,174.27c2.41,4.26,5.19,8.23,8.29,11.92,3.05,3.71,6.36,7.16,9.87,10.34,3.53,3.16,7.24,6.06,11.14,8.63,1.94,1.3,3.95,2.47,5.95,3.64,2.06,1.07,4.09,2.18,6.21,3.1,2.07,1.01,4.24,1.8,6.36,2.66,2.19.71,4.32,1.54,6.55,2.1,4.38,1.32,8.9,2.15,13.4,2.86,2.28.22,4.54.55,6.82.69,2.29.11,4.55.35,6.85.3l3.43.02c1.14.03,2.29-.09,3.44-.13l3.43-.16c1.14-.06,2.29-.2,3.44-.3l3.43-.32c1.14-.12,2.29-.32,3.43-.47,2.28-.33,4.57-.63,6.79-1.09,4.48-.86,8.98-1.92,13.47-3.16,4.49-1.22,8.97-2.68,13.46-4.14,4.49-1.47,8.97-3.07,13.44-4.74,8.95-3.33,17.93-6.81,26.9-10.43l27.12-10.77c9.11-3.52,18.3-6.99,27.58-10.29,9.31-3.23,18.7-6.34,28.24-9.09,9.56-2.7,19.21-5.2,29.05-7.09,4.91-.95,9.85-1.81,14.83-2.51,4.98-.66,9.98-1.22,15.02-1.57,10.05-.75,20.22-.69,30.3.24,10.08,1.01,20.1,2.9,29.73,6.01,9.64,3.05,18.84,7.32,27.33,12.55,8.48,5.25,16.18,11.58,23,18.59-4.16-2.6-8.23-5.24-12.55-7.44-4.23-2.34-8.62-4.32-13-6.2-8.85-3.59-17.93-6.35-27.19-7.98-2.3-.46-4.63-.77-6.94-1.12-1.16-.16-2.33-.27-3.49-.4-1.16-.14-2.32-.26-3.49-.33-4.66-.43-9.34-.54-14.01-.56-4.68.08-9.35.23-14.02.63-4.67.4-9.32.94-13.97,1.64-4.65.66-9.27,1.53-13.89,2.48-4.61.95-9.22,2-13.8,3.17-9.16,2.37-18.28,5.03-27.34,8.01-9.06,2.99-18.1,6.13-27.09,9.53-9.02,3.32-18.02,6.8-27.04,10.35l-27.24,10.52c-4.58,1.71-9.18,3.42-13.81,5.08-4.63,1.67-9.28,3.32-14,4.84-9.42,3.07-19.01,5.95-28.94,8.08-4.96,1.06-9.99,2-15.13,2.62-2.58.33-5.14.49-7.69.67-1.28.08-2.55.2-3.83.25l-3.86.08c-1.29.02-2.57.07-3.85.05l-3.86-.15c-1.29-.07-2.57-.06-3.86-.2l-3.86-.36c-2.57-.18-5.13-.67-7.68-1.03-1.28-.16-2.54-.46-3.81-.73l-3.79-.82c-5-1.35-9.98-2.76-14.73-4.83-2.41-.92-4.71-2.13-7.03-3.22l-3.39-1.85c-1.14-.59-2.23-1.28-3.31-1.97-2.2-1.32-4.27-2.85-6.36-4.32-2.01-1.58-4.04-3.13-5.91-4.86-3.78-3.4-7.3-7.06-10.42-11-6.24-7.86-11.25-16.66-14.11-26.05Z"/>
      </g>
      <g class="st5">
        <path class="st2" d="M-8.24,175.11c2.47,4.22,5.3,8.16,8.45,11.8,3.1,3.67,6.46,7.07,10.02,10.21,3.57,3.11,7.32,5.96,11.26,8.47,1.96,1.28,3.99,2.41,6,3.56,2.08,1.04,4.12,2.13,6.25,3.01,2.09.98,4.27,1.74,6.4,2.58,2.2.68,4.34,1.48,6.58,2.01,4.4,1.26,8.93,2.02,13.43,2.68,2.29.19,4.54.49,6.83.6,2.29.08,4.56.29,6.86.21l3.43-.03c1.14.01,2.29-.12,3.44-.17l3.43-.21c1.14-.08,2.29-.23,3.43-.35l3.43-.36c1.14-.14,2.28-.35,3.42-.52,2.28-.36,4.56-.7,6.78-1.18,4.47-.92,8.95-2.04,13.42-3.35,4.48-1.29,8.93-2.81,13.4-4.33,4.47-1.54,8.93-3.19,13.38-4.92,8.9-3.45,17.83-7.06,26.75-10.8l26.97-11.14c9.06-3.65,18.2-7.24,27.43-10.67,9.26-3.36,18.61-6.6,28.11-9.48,9.52-2.83,19.14-5.47,28.95-7.49,4.9-1.02,9.83-1.95,14.8-2.71,4.97-.73,9.97-1.36,15-1.77,10.04-.89,20.21-.97,30.3-.18,10.1.87,20.14,2.62,29.81,5.6,9.68,2.92,18.94,7.06,27.5,12.17,8.56,5.14,16.34,11.35,23.25,18.27-4.19-2.54-8.3-5.13-12.65-7.27-4.26-2.28-8.68-4.2-13.08-6.01-8.9-3.47-18.02-6.1-27.3-7.61-2.31-.43-4.64-.71-6.96-1.03-1.16-.15-2.33-.23-3.5-.35-1.16-.12-2.33-.23-3.5-.28-4.66-.36-9.35-.41-14.02-.36-4.68.15-9.35.36-14.01.82-4.66.46-9.31,1.07-13.94,1.83-4.64.72-9.25,1.66-13.85,2.67-4.6,1.01-9.19,2.13-13.76,3.36-9.12,2.5-18.21,5.28-27.22,8.39-9.01,3.12-18.01,6.38-26.95,9.91-8.97,3.45-17.92,7.04-26.89,10.72l-27.09,10.9c-4.56,1.78-9.13,3.55-13.74,5.27-4.61,1.73-9.23,3.45-13.94,5.03-9.38,3.2-18.93,6.21-28.82,8.48-4.95,1.13-9.97,2.14-15.1,2.83-2.58.37-5.13.57-7.68.78-1.28.1-2.55.24-3.83.3l-3.86.13c-1.29.03-2.56.11-3.85.1l-3.87-.09c-1.29-.05-2.57-.03-3.86-.15l-3.86-.31c-2.57-.15-5.14-.59-7.69-.92-1.28-.14-2.55-.43-3.82-.68l-3.8-.77c-5.02-1.28-10.02-2.62-14.8-4.63-2.42-.89-4.74-2.07-7.08-3.12l-3.42-1.8c-1.15-.58-2.25-1.25-3.34-1.93-2.22-1.29-4.31-2.79-6.41-4.23-2.04-1.55-4.08-3.07-5.98-4.77-3.83-3.35-7.4-6.95-10.57-10.85-6.35-7.77-11.48-16.5-14.47-25.85Z"/>
      </g>
      <rect class="st0" x="0" y="0" width="396" height="288"/>
    </g>
  </g>
</svg>