<svg xmlns="http://www.w3.org/2000/svg" width="48" height="48" viewBox="0 0 48 48"><g><circle cx="24" cy="24" r="24" fill="#25d366"/><path d="M36.1 33.1c-1.1 1.1-2.3 2-3.7 2.6-1.4.6-2.9.9-4.4.9-2.5 0-4.9-.7-7-2.1l-7.7 2 2.1-7.5c-1.5-2.2-2.3-4.7-2.3-7.3 0-1.5.3-3 .9-4.4.6-1.4 1.5-2.6 2.6-3.7 1.1-1.1 2.3-2 3.7-2.6 1.4-.6 2.9-.9 4.4-.9 1.5 0 3 .3 4.4.9 1.4.6 2.6 1.5 3.7 2.6 1.1 1.1 2 2.3 2.6 3.7.6 1.4.9 2.9.9 4.4 0 1.5-.3 3-.9 4.4-.6 1.4-1.5 2.6-2.6 3.7zm-12.1-8.2c.2.4.7 1.2 1.5 2.1.7.8 1.3 1.3 1.7 1.5.4.2.7.2 1 .1.3-.1 1.1-.4 2.2-.9.6-.3 1.1-.5 1.5-.7.4-.2.7-.2 1 .1.3.3 1.1 1.3 1.3 1.6.2.3.2.6.1.9-.1.3-.4 1.1-.8 1.7-.4.6-.8 1.1-1.3 1.5-.5.4-1.1.7-1.7.8-.6.1-1.2.1-1.8-.1-.6-.2-1.4-.6-2.2-1.2-.8-.6-1.7-1.5-2.7-2.7-1-1.2-1.7-2.3-2.1-3.2-.4-.9-.6-1.7-.6-2.3 0-.6.2-1.1.6-1.5.4-.4 1.1-.8 1.7-.8.3 0 .6.1.9.3.3.2 1.3 1.1 1.6 1.4.3.3.3.6.1.9-.2.3-.5.7-.7 1-.2.3-.2.7 0 1.1z" fill="#fff"/></g></svg>